<?xml version='1.0' encoding='UTF-8'?>
<!DOCTYPE svg PUBLIC "-//W3C//DTD SVG 1.0//EN" "http://www.w3.org/TR/2001/REC-SVG-20010904/DTD/svg10.dtd">
<svg viewBox="0 0 640 760" xmlns="http://www.w3.org/2000/svg" xmlns:inkspace="http://www.inkscape.org/namespaces/inkscape" xmlns:xlink="http://www.w3.org/1999/xlink">
  <defs id="defs_block">
    <filter height="1.504" id="filter_blur" inkspace:collect="always" width="1.1575" x="-0.07875" y="-0.252">
      <feGaussianBlur id="feGaussianBlur3780" inkspace:collect="always" stdDeviation="4.2" />
    </filter>
  </defs>
  <title>blockdiag</title>
  <desc />
  <rect fill="rgb(243,152,0)" height="220" style="filter:url(#filter_blur)" width="144" x="440" y="510" />
  <rect fill="rgb(243,152,0)" height="300" style="filter:url(#filter_blur)" width="144" x="56" y="30" />
  <rect fill="rgb(243,152,0)" height="300" style="filter:url(#filter_blur)" width="144" x="248" y="270" />
  <rect fill="rgb(0,0,0)" height="40" stroke="rgb(0,0,0)" style="filter:url(#filter_blur);opacity:0.7;fill-opacity:1" width="128" x="451" y="526" />
  <rect fill="rgb(0,0,0)" height="40" stroke="rgb(0,0,0)" style="filter:url(#filter_blur);opacity:0.7;fill-opacity:1" width="128" x="451" y="606" />
  <rect fill="rgb(0,0,0)" height="40" stroke="rgb(0,0,0)" style="filter:url(#filter_blur);opacity:0.7;fill-opacity:1" width="128" x="451" y="686" />
  <rect fill="rgb(0,0,0)" height="40" stroke="rgb(0,0,0)" style="filter:url(#filter_blur);opacity:0.7;fill-opacity:1" width="128" x="75" y="54" />
  <rect fill="rgb(0,0,0)" height="40" stroke="rgb(0,0,0)" style="filter:url(#filter_blur);opacity:0.7;fill-opacity:1" width="128" x="71" y="50" />
  <rect fill="rgb(0,0,0)" height="40" stroke="rgb(0,0,0)" style="filter:url(#filter_blur);opacity:0.7;fill-opacity:1" width="128" x="67" y="46" />
  <rect fill="rgb(0,0,0)" height="40" stroke="rgb(0,0,0)" style="filter:url(#filter_blur);opacity:0.7;fill-opacity:1" width="128" x="67" y="126" />
  <rect fill="rgb(0,0,0)" height="40" stroke="rgb(0,0,0)" style="filter:url(#filter_blur);opacity:0.7;fill-opacity:1" width="128" x="67" y="206" />
  <rect fill="rgb(0,0,0)" height="40" stroke="rgb(0,0,0)" style="filter:url(#filter_blur);opacity:0.7;fill-opacity:1" width="128" x="67" y="286" />
  <rect fill="rgb(0,0,0)" height="40" stroke="rgb(0,0,0)" style="filter:url(#filter_blur);opacity:0.7;fill-opacity:1" width="128" x="267" y="294" />
  <rect fill="rgb(0,0,0)" height="40" stroke="rgb(0,0,0)" style="filter:url(#filter_blur);opacity:0.7;fill-opacity:1" width="128" x="263" y="290" />
  <rect fill="rgb(0,0,0)" height="40" stroke="rgb(0,0,0)" style="filter:url(#filter_blur);opacity:0.7;fill-opacity:1" width="128" x="259" y="286" />
  <rect fill="rgb(0,0,0)" height="40" stroke="rgb(0,0,0)" style="filter:url(#filter_blur);opacity:0.7;fill-opacity:1" width="128" x="259" y="366" />
  <rect fill="rgb(0,0,0)" height="40" stroke="rgb(0,0,0)" style="filter:url(#filter_blur);opacity:0.7;fill-opacity:1" width="128" x="259" y="446" />
  <rect fill="rgb(0,0,0)" height="40" stroke="rgb(0,0,0)" style="filter:url(#filter_blur);opacity:0.7;fill-opacity:1" width="128" x="259" y="526" />
  <rect fill="rgb(255,255,255)" height="40" stroke="rgb(0,0,0)" width="128" x="448" y="520" />
  <text fill="rgb(0,0,0)" font-family="sans-serif" font-size="11" font-style="normal" font-weight="normal" text-anchor="middle" textLength="43" x="512" y="546">Flatten</text>
  <rect fill="rgb(165,42,42)" height="40" stroke="rgb(0,0,0)" width="128" x="448" y="600" />
  <text fill="rgb(255,255,255)" font-family="sans-serif" font-size="11" font-style="normal" font-weight="normal" text-anchor="middle" textLength="103" x="512" y="626">FullyConnected-96</text>
  <rect fill="rgb(255,255,0)" height="40" stroke="rgb(0,0,0)" width="128" x="448" y="680" />
  <text fill="rgb(0,0,0)" font-family="sans-serif" font-size="11" font-style="normal" font-weight="normal" text-anchor="middle" textLength="37" x="512" y="706">Logits</text>
  <rect fill="rgb(255,0,0)" height="40" stroke="rgb(0,0,0)" stroke-dasharray="4" width="128" x="72" y="48" />
  <rect fill="rgb(255,0,0)" height="40" stroke="rgb(0,0,0)" stroke-dasharray="4" width="128" x="68" y="44" />
  <rect fill="rgb(255,0,0)" height="40" stroke="rgb(0,0,0)" stroke-dasharray="4" width="128" x="64" y="40" />
  <text fill="rgb(255,255,255)" font-family="sans-serif" font-size="11" font-style="normal" font-weight="normal" text-anchor="middle" textLength="73" x="128" y="66">Conv1-5x5x12</text>
  <rect fill="rgb(173,216,230)" height="40" stroke="rgb(0,0,0)" width="128" x="64" y="120" />
  <text fill="rgb(0,0,0)" font-family="sans-serif" font-size="11" font-style="normal" font-weight="normal" text-anchor="middle" textLength="31" x="128" y="146">Relu1</text>
  <rect fill="rgb(255,165,0)" height="40" stroke="rgb(0,0,0)" width="128" x="64" y="200" />
  <text fill="rgb(0,0,0)" font-family="sans-serif" font-size="11" font-style="normal" font-weight="normal" text-anchor="middle" textLength="49" x="128" y="226">Maxpool1</text>
  <rect fill="rgb(255,165,0)" height="40" stroke="rgb(0,0,0)" width="128" x="64" y="280" />
  <text fill="rgb(0,0,0)" font-family="sans-serif" font-size="11" font-style="normal" font-weight="normal" text-anchor="middle" textLength="49" x="128" y="306">Dropout1</text>
  <rect fill="rgb(255,0,0)" height="40" stroke="rgb(0,0,0)" stroke-dasharray="4" width="128" x="264" y="288" />
  <rect fill="rgb(255,0,0)" height="40" stroke="rgb(0,0,0)" stroke-dasharray="4" width="128" x="260" y="284" />
  <rect fill="rgb(255,0,0)" height="40" stroke="rgb(0,0,0)" stroke-dasharray="4" width="128" x="256" y="280" />
  <text fill="rgb(255,255,255)" font-family="sans-serif" font-size="11" font-style="normal" font-weight="normal" text-anchor="middle" textLength="73" x="320" y="306">Conv2-7x7x24</text>
  <rect fill="rgb(173,216,230)" height="40" stroke="rgb(0,0,0)" width="128" x="256" y="360" />
  <text fill="rgb(0,0,0)" font-family="sans-serif" font-size="11" font-style="normal" font-weight="normal" text-anchor="middle" textLength="31" x="320" y="386">Relu2</text>
  <rect fill="rgb(255,165,0)" height="40" stroke="rgb(0,0,0)" width="128" x="256" y="440" />
  <text fill="rgb(0,0,0)" font-family="sans-serif" font-size="11" font-style="normal" font-weight="normal" text-anchor="middle" textLength="49" x="320" y="466">Maxpool2</text>
  <rect fill="rgb(255,165,0)" height="40" stroke="rgb(0,0,0)" width="128" x="256" y="520" />
  <text fill="rgb(0,0,0)" font-family="sans-serif" font-size="11" font-style="normal" font-weight="normal" text-anchor="middle" textLength="49" x="320" y="546">Dropout2</text>
  <path d="M 512 560 L 512 592" fill="none" stroke="rgb(0,0,0)" />
  <polygon fill="rgb(0,0,0)" points="512,599 508,592 516,592 512,599" stroke="rgb(0,0,0)" />
  <path d="M 512 640 L 512 672" fill="none" stroke="rgb(0,0,0)" />
  <polygon fill="rgb(0,0,0)" points="512,679 508,672 516,672 512,679" stroke="rgb(0,0,0)" />
  <path d="M 128 88 L 128 112" fill="none" stroke="rgb(0,0,0)" />
  <polygon fill="rgb(0,0,0)" points="128,119 124,112 132,112 128,119" stroke="rgb(0,0,0)" />
  <path d="M 128 160 L 128 192" fill="none" stroke="rgb(0,0,0)" />
  <polygon fill="rgb(0,0,0)" points="128,199 124,192 132,192 128,199" stroke="rgb(0,0,0)" />
  <path d="M 128 240 L 128 272" fill="none" stroke="rgb(0,0,0)" />
  <polygon fill="rgb(0,0,0)" points="128,279 124,272 132,272 128,279" stroke="rgb(0,0,0)" />
  <path d="M 192 300 L 248 300" fill="none" stroke="rgb(0,0,0)" />
  <polygon fill="rgb(0,0,0)" points="255,300 248,296 248,304 255,300" stroke="rgb(0,0,0)" />
  <path d="M 320 328 L 320 352" fill="none" stroke="rgb(0,0,0)" />
  <polygon fill="rgb(0,0,0)" points="320,359 316,352 324,352 320,359" stroke="rgb(0,0,0)" />
  <path d="M 320 400 L 320 432" fill="none" stroke="rgb(0,0,0)" />
  <polygon fill="rgb(0,0,0)" points="320,439 316,432 324,432 320,439" stroke="rgb(0,0,0)" />
  <path d="M 320 480 L 320 512" fill="none" stroke="rgb(0,0,0)" />
  <polygon fill="rgb(0,0,0)" points="320,519 316,512 324,512 320,519" stroke="rgb(0,0,0)" />
  <path d="M 384 540 L 440 540" fill="none" stroke="rgb(0,0,0)" />
  <polygon fill="rgb(0,0,0)" points="447,540 440,536 440,544 447,540" stroke="rgb(0,0,0)" />
</svg>
